<svg width="136" height="45" viewBox="0 0 136 45" fill="none" xmlns="http://www.w3.org/2000/svg">
<g id="Group">
<g id="Group_2">
<g id="Group_3">
<path id="Vector" d="M124.357 2.41797e-05H11.1817C10.7692 2.41797e-05 10.3616 2.41797e-05 9.95014 0.00227418C9.60573 0.00452418 9.26405 0.0110604 8.91633 0.0165617C8.1609 0.0254512 7.40726 0.09191 6.66194 0.21536C5.91766 0.341498 5.19671 0.579304 4.52345 0.920735C3.85101 1.26505 3.23659 1.71246 2.70247 2.24673C2.16554 2.77949 1.71797 3.39529 1.37697 4.07045C1.03503 4.74427 0.797921 5.46633 0.673844 6.21169C0.548588 6.95611 0.481186 7.70911 0.472244 8.46394C0.461804 8.80886 0.460701 9.15494 0.4552 9.49991V35.5034C0.460701 35.8528 0.461804 36.1912 0.472244 36.5406C0.481189 37.2954 0.54859 38.0483 0.673844 38.7927C0.797578 39.5385 1.0347 40.261 1.37697 40.9351C1.71782 41.608 2.16545 42.2213 2.70247 42.7511C3.23456 43.2878 3.84938 43.7355 4.52345 44.0772C5.1967 44.4195 5.91758 44.6587 6.66194 44.7868C7.40738 44.9093 8.16095 44.9758 8.91633 44.9857C9.26405 44.9934 9.60573 44.9978 9.95014 44.9978C10.3616 45 10.7692 45 11.1817 45H124.357C124.761 45 125.172 45 125.576 44.9978C125.919 44.9978 126.271 44.9934 126.613 44.9857C127.367 44.9763 128.12 44.9098 128.863 44.7868C129.61 44.6578 130.334 44.4187 131.01 44.0772C131.684 43.7353 132.298 43.2876 132.83 42.7511C133.365 42.2193 133.814 41.6064 134.159 40.9351C134.499 40.2605 134.733 39.5381 134.855 38.7927C134.981 38.0482 135.051 37.2954 135.064 36.5406C135.069 36.1912 135.069 35.8528 135.069 35.5034C135.077 35.0947 135.077 34.6883 135.077 34.2729V10.7282C135.077 10.3162 135.077 9.90749 135.069 9.49991C135.069 9.15494 135.069 8.80886 135.064 8.46389C135.051 7.709 134.981 6.95616 134.855 6.21164C134.733 5.46672 134.498 4.74471 134.159 4.07041C133.464 2.71712 132.363 1.61555 131.01 0.920634C130.334 0.580037 129.61 0.342295 128.863 0.215259C128.12 0.0912648 127.367 0.0247829 126.613 0.0164042C126.271 0.0109142 125.919 0.00432168 125.576 0.00212793C125.172 -0.00012207 124.761 -0.00012207 124.357 -0.00012207V2.41797e-05Z" fill="white"/>
</g>
<g id="&#60;Group&#62;">
<g id="&#60;Group&#62;_2">
<g id="&#60;Group&#62;_3">
<path id="&#60;Path&#62;" d="M28.5765 22.3749C28.5891 21.3985 28.8484 20.4411 29.3305 19.5918C29.8125 18.7425 30.5015 18.0289 31.3334 17.5175C30.8049 16.7627 30.1077 16.1416 29.2972 15.7034C28.4867 15.2652 27.5851 15.0221 26.6642 14.9933C24.6997 14.7871 22.7952 16.1688 21.7941 16.1688C20.7736 16.1688 19.2323 15.0137 17.5726 15.0479C16.499 15.0826 15.4527 15.3948 14.5357 15.954C13.6186 16.5133 12.8621 17.3006 12.3398 18.2392C10.0773 22.1564 11.7649 27.9135 13.9322 31.0799C15.0166 32.6304 16.2839 34.3624 17.9421 34.301C19.5648 34.2337 20.1709 33.2662 22.1296 33.2662C24.0702 33.2662 24.6388 34.301 26.3307 34.2619C28.0719 34.2337 29.169 32.7045 30.2153 31.1393C30.9944 30.0345 31.5939 28.8135 31.9917 27.5215C30.9801 27.0936 30.1168 26.3774 29.5095 25.4622C28.9021 24.547 28.5777 23.4733 28.5765 22.3749Z" fill="#282739"/>
<path id="&#60;Path&#62;_2" d="M25.3808 12.9113C26.3302 11.7716 26.798 10.3066 26.6847 8.82764C25.2343 8.97998 23.8944 9.6732 22.9322 10.7692C22.4618 11.3046 22.1014 11.9275 21.8719 12.6022C21.6423 13.277 21.5479 13.9904 21.5942 14.7016C22.3197 14.7091 23.0374 14.5518 23.6933 14.2417C24.3492 13.9316 24.9262 13.4767 25.3808 12.9113V12.9113Z" fill="#282739"/>
</g>
</g>
<g id="Group_4">
<path id="Vector_2" d="M48.0447 30.5321H42.7197L41.4409 34.3081H39.1854L44.2292 20.3379H46.5726L51.6164 34.3081H49.3224L48.0447 30.5321ZM43.2712 28.7897H47.4922L45.4114 22.6615H45.3531L43.2712 28.7897Z" fill="#282739"/>
<path id="Vector_3" d="M62.5093 29.2158C62.5093 32.3809 60.8152 34.4145 58.2587 34.4145C57.6111 34.4484 56.967 34.2992 56.4003 33.984C55.8335 33.6689 55.3669 33.2005 55.054 32.6325H55.0056V37.6774H52.9149V24.1225H54.9386V25.8166H54.9771C55.3044 25.2513 55.7788 24.7853 56.3499 24.4683C56.921 24.1512 57.5673 23.9949 58.2202 24.0159C60.8053 24.0159 62.5093 26.0594 62.5093 29.2158ZM60.3604 29.2158C60.3604 27.1536 59.2947 25.7979 57.6687 25.7979C56.0713 25.7979 54.9969 27.1822 54.9969 29.2158C54.9969 31.268 56.0713 32.6424 57.6687 32.6424C59.2947 32.6424 60.3603 31.2966 60.3603 29.2158H60.3604Z" fill="#282739"/>
<path id="Vector_4" d="M73.7203 29.2158C73.7203 32.3809 72.0257 34.4145 69.4691 34.4145C68.8215 34.4484 68.1775 34.2992 67.6107 33.984C67.0439 33.6689 66.5774 33.2005 66.2644 32.6325H66.2161V37.6774H64.1254V24.1225H66.149V25.8166H66.1875C66.5148 25.2513 66.9893 24.7853 67.5604 24.4683C68.1314 24.1512 68.7778 23.9949 69.4307 24.0159C72.0158 24.0159 73.7203 26.0594 73.7203 29.2158ZM71.5708 29.2158C71.5708 27.1536 70.5052 25.7979 68.8792 25.7979C67.2818 25.7979 66.2073 27.1822 66.2073 29.2158C66.2073 31.268 67.2818 32.6424 68.8792 32.6424C70.5052 32.6424 71.5708 31.2966 71.5708 29.2158V29.2158Z" fill="#282739"/>
<path id="Vector_5" d="M81.1284 30.4157C81.2833 31.8011 82.6292 32.7107 84.4683 32.7107C86.2305 32.7107 87.4983 31.801 87.4983 30.5519C87.4983 29.4675 86.7336 28.8183 84.9231 28.3733L83.1125 27.9371C80.5472 27.3175 79.3563 26.1178 79.3563 24.171C79.3563 21.7606 81.4569 20.105 84.4386 20.105C87.3917 20.105 89.4154 21.7606 89.4835 24.171H87.373C87.2467 22.7769 86.0942 21.9353 84.41 21.9353C82.7258 21.9353 81.5733 22.7868 81.5733 24.026C81.5733 25.0137 82.3094 25.5949 84.1101 26.0398L85.6493 26.4177C88.5156 27.0955 89.7054 28.2469 89.7054 30.2904C89.7054 32.904 87.6246 34.541 84.3133 34.541C81.2151 34.541 79.1234 32.9425 78.9882 30.4156L81.1284 30.4157Z" fill="#282739"/>
<path id="Vector_6" d="M94.2197 21.7123V24.1227H96.1566V25.7783H94.2197V31.3934C94.2197 32.2657 94.6075 32.6722 95.459 32.6722C95.6889 32.6682 95.9185 32.6521 96.1467 32.6239V34.2696C95.7639 34.3411 95.3748 34.3735 94.9855 34.3663C92.9233 34.3663 92.1191 33.5918 92.1191 31.6164V25.7783H90.6382V24.1227H92.1191V21.7123H94.2197Z" fill="#282739"/>
<path id="Vector_7" d="M97.2772 29.2159C97.2772 26.0112 99.1647 23.9974 102.108 23.9974C105.061 23.9974 106.94 26.0112 106.94 29.2159C106.94 32.4294 105.071 34.4344 102.108 34.4344C99.146 34.4344 97.2772 32.4294 97.2772 29.2159ZM104.809 29.2159C104.809 27.0176 103.802 25.7201 102.108 25.7201C100.414 25.7201 99.4064 27.0275 99.4064 29.2159C99.4064 31.4231 100.414 32.7107 102.108 32.7107C103.802 32.7107 104.809 31.4231 104.809 29.2159H104.809Z" fill="#282739"/>
<path id="Vector_8" d="M108.663 24.1224H110.657V25.856H110.706C110.841 25.3146 111.158 24.8361 111.604 24.501C112.05 24.1658 112.598 23.9945 113.156 24.0158C113.397 24.015 113.637 24.0411 113.872 24.0938V26.0494C113.568 25.9564 113.251 25.9138 112.933 25.923C112.629 25.9107 112.326 25.9643 112.045 26.08C111.764 26.1958 111.511 26.371 111.304 26.5936C111.097 26.8162 110.941 27.081 110.846 27.3698C110.751 27.6585 110.72 27.9644 110.754 28.2664V34.3078H108.663L108.663 24.1224Z" fill="#282739"/>
<path id="Vector_9" d="M123.511 31.3165C123.23 33.1655 121.43 34.4344 119.126 34.4344C116.163 34.4344 114.324 32.4492 114.324 29.2643C114.324 26.0695 116.173 23.9974 119.038 23.9974C121.856 23.9974 123.628 25.9332 123.628 29.0215V29.7378H116.434V29.8641C116.401 30.239 116.448 30.6166 116.572 30.9719C116.696 31.3272 116.894 31.6521 117.153 31.925C117.412 32.1979 117.726 32.4125 118.075 32.5546C118.423 32.6967 118.798 32.763 119.174 32.7491C119.668 32.7954 120.164 32.681 120.588 32.4229C121.012 32.1648 121.341 31.7767 121.526 31.3165L123.511 31.3165ZM116.444 28.2766H121.536C121.555 27.9396 121.504 27.6023 121.386 27.2859C121.268 26.9696 121.086 26.681 120.852 26.4382C120.617 26.1955 120.335 26.0038 120.023 25.8754C119.711 25.7469 119.375 25.6843 119.038 25.6915C118.697 25.6895 118.36 25.7549 118.045 25.884C117.73 26.0131 117.443 26.2033 117.202 26.4436C116.961 26.684 116.77 26.9697 116.64 27.2843C116.51 27.5989 116.443 27.9362 116.444 28.2766V28.2766Z" fill="#282739"/>
</g>
</g>
</g>
<g id="&#60;Group&#62;_4">
<g id="Group_5">
<path id="Vector_10" d="M41.7858 12.6601H42.6833C42.8379 12.6793 42.9947 12.6663 43.1439 12.622C43.2932 12.5776 43.4316 12.5028 43.5505 12.4022C43.6694 12.3017 43.7662 12.1776 43.8348 12.0378C43.9034 11.898 43.9422 11.7456 43.949 11.59C43.949 10.9709 43.4831 10.571 42.6932 10.571C42.5349 10.5489 42.3738 10.5587 42.2194 10.5999C42.0649 10.6411 41.9203 10.7128 41.794 10.8108C41.6677 10.9088 41.5624 11.0311 41.4842 11.1705C41.406 11.3099 41.3565 11.4636 41.3386 11.6224H40.3531C40.3701 11.3341 40.4462 11.0523 40.5768 10.7947C40.7074 10.537 40.8896 10.309 41.1121 10.1249C41.3346 9.9407 41.5926 9.80431 41.8701 9.72419C42.1476 9.64407 42.4386 9.62193 42.7251 9.65915C44.0467 9.65915 44.9773 10.3991 44.9773 11.4642C44.9804 11.821 44.861 12.1681 44.6391 12.4475C44.4172 12.727 44.1061 12.9218 43.7578 12.9995V13.0786C44.1707 13.097 44.5595 13.278 44.8393 13.5822C45.1191 13.8863 45.267 14.2889 45.2509 14.7019C45.2203 14.9988 45.1308 15.2865 44.9876 15.5484C44.8444 15.8102 44.6503 16.0408 44.4168 16.2267C44.1833 16.4126 43.915 16.55 43.6278 16.6308C43.3405 16.7117 43.0399 16.7343 42.7438 16.6975C42.447 16.738 42.1451 16.7183 41.8561 16.6396C41.5671 16.5609 41.2969 16.4248 41.0616 16.2394C40.8263 16.0541 40.6307 15.8232 40.4866 15.5607C40.3424 15.2981 40.2525 15.0092 40.2224 14.7112H41.2233C41.2837 15.3534 41.8737 15.7676 42.7438 15.7676C43.6139 15.7676 44.1819 15.3023 44.1819 14.6464C44.1819 13.9812 43.6468 13.5714 42.7119 13.5714H41.7858V12.6601Z" fill="#282739"/>
<path id="Vector_11" d="M46.3879 15.1019C46.3879 14.1901 47.068 13.6644 48.2721 13.5897L49.6443 13.5106V13.0733C49.6443 12.5383 49.2916 12.2361 48.6072 12.2361C48.0491 12.2361 47.6635 12.441 47.5514 12.7992H46.5835C46.6857 11.9291 47.5053 11.371 48.6544 11.371C49.9244 11.371 50.6408 12.0032 50.6408 13.0733V16.5345H49.6772V15.8226H49.5982C49.4376 16.078 49.2121 16.2862 48.9448 16.4259C48.6775 16.5657 48.3779 16.6319 48.0765 16.618C47.8639 16.6401 47.6489 16.6174 47.4456 16.5514C47.2422 16.4854 47.055 16.3774 46.8959 16.2346C46.7368 16.0918 46.6094 15.9172 46.5219 15.7221C46.4344 15.527 46.3888 15.3157 46.3879 15.1019V15.1019ZM49.6443 14.6691V14.2455L48.4072 14.3246C47.7095 14.3713 47.3931 14.6086 47.3931 15.0552C47.3931 15.5112 47.7886 15.7765 48.3325 15.7765C48.4919 15.7926 48.6528 15.7765 48.8059 15.7292C48.9589 15.6818 49.1008 15.6042 49.2232 15.5009C49.3456 15.3975 49.4459 15.2707 49.5183 15.1278C49.5906 14.9849 49.6335 14.8289 49.6443 14.6691V14.6691Z" fill="#282739"/>
<path id="Vector_12" d="M53.2939 12.3103V16.5345H52.2942V11.4688H55.6297V12.3102L53.2939 12.3103Z" fill="#282739"/>
<path id="Vector_13" d="M61.6886 14.0003C61.6886 15.6097 60.8745 16.6189 59.5957 16.6189C59.2818 16.6403 58.9683 16.5716 58.6921 16.4208C58.4159 16.2701 58.1885 16.0436 58.0368 15.768H57.9576V18.2196H56.9579V11.4696H57.9203V12.3067H57.995C58.1495 12.0215 58.3798 11.7845 58.6606 11.6219C58.9413 11.4594 59.2615 11.3776 59.5858 11.3855C60.8745 11.3855 61.6886 12.3902 61.6886 14.0003ZM60.6603 14.0003C60.6603 12.9302 60.1538 12.2836 59.3068 12.2836C58.4653 12.2836 57.939 12.9439 57.939 14.0047C57.939 15.0604 58.4652 15.7213 59.3024 15.7213C60.1538 15.7213 60.6603 15.0747 60.6603 14.0003Z" fill="#282739"/>
<path id="Vector_14" d="M63.0201 18.3489V17.4882C63.1283 17.5019 63.2373 17.5081 63.3464 17.5068C63.5594 17.5226 63.7707 17.4592 63.9398 17.3287C64.1089 17.1982 64.2239 17.0099 64.2626 16.7999L64.3373 16.5532L62.5037 11.4688H63.5925L64.8625 15.4925H64.9416L66.2073 11.4688H67.2674L65.3789 16.7438C64.946 17.9765 64.467 18.372 63.4343 18.372C63.3508 18.372 63.1135 18.3627 63.0201 18.3489Z" fill="#282739"/>
<path id="Vector_15" d="M68.0464 15.0971H69.0418C69.1395 15.5437 69.5581 15.7766 70.1437 15.7766C70.8095 15.7766 71.2181 15.4833 71.2181 15.0273C71.2181 14.539 70.8512 14.3061 70.1437 14.3061H69.3856V13.5294H70.1305C70.7347 13.5294 71.0424 13.297 71.0424 12.8735C71.0424 12.5016 70.7446 12.2176 70.1305 12.2176C69.5713 12.2176 69.1626 12.4549 69.0977 12.8548H68.1343C68.2063 12.3953 68.4558 11.9824 68.8291 11.705C69.2024 11.4275 69.6697 11.3076 70.1305 11.3711C71.3346 11.3711 72.0234 11.9155 72.0234 12.7713C72.0291 13.0097 71.9527 13.2427 71.8071 13.4315C71.6615 13.6202 71.4556 13.7533 71.2236 13.8084V13.8875C71.4998 13.9232 71.7532 14.0589 71.9359 14.269C72.1185 14.4791 72.2177 14.749 72.2146 15.0274C72.2146 15.9904 71.395 16.6275 70.1437 16.6275C69.0374 16.6275 68.1387 16.1205 68.0464 15.0971Z" fill="#282739"/>
<path id="Vector_16" d="M73.6544 16.5345V11.4688H74.6453V14.9531H74.7244L77.059 11.4688H78.05V16.5346H77.059V13.0316H76.9843L74.6453 16.5346L73.6544 16.5345Z" fill="#282739"/>
<path id="Vector_17" d="M83.5091 12.3111H81.9138V16.5353H80.913V12.3111H79.3177V11.4696H83.5091V12.3111Z" fill="#282739"/>
<path id="Vector_18" d="M88.8946 15.1668C88.7584 15.6298 88.4638 16.0302 88.0624 16.2981C87.661 16.5659 87.1782 16.6843 86.6984 16.6324C86.3647 16.6412 86.033 16.5773 85.7264 16.4451C85.4199 16.3129 85.1458 16.1155 84.9231 15.8667C84.7005 15.6179 84.5346 15.3237 84.4371 15.0044C84.3396 14.6851 84.3127 14.3484 84.3583 14.0177C84.3139 13.6859 84.3412 13.3485 84.4385 13.0282C84.5358 12.708 84.7008 12.4124 84.9223 12.1614C85.1438 11.9105 85.4166 11.71 85.7222 11.5737C86.0279 11.4373 86.3593 11.3682 86.694 11.3711C88.1036 11.3711 88.955 12.3341 88.955 13.9248V14.2737H85.3779V14.3297C85.362 14.5156 85.3853 14.7028 85.4461 14.8793C85.5069 15.0557 85.604 15.2174 85.731 15.3541C85.8581 15.4908 86.0123 15.5994 86.1839 15.6729C86.3554 15.7464 86.5404 15.7832 86.727 15.7809C86.966 15.8095 87.2081 15.7664 87.4225 15.657C87.6369 15.5477 87.8139 15.377 87.9311 15.1668L88.8946 15.1668ZM85.3778 13.5343H87.9355C87.9481 13.3643 87.925 13.1936 87.8678 13.0331C87.8106 12.8727 87.7204 12.7259 87.6031 12.6023C87.4857 12.4787 87.3439 12.3811 87.1866 12.3156C87.0292 12.2501 86.86 12.2182 86.6896 12.222C86.5167 12.2196 86.345 12.2519 86.1847 12.3171C86.0245 12.3822 85.8789 12.4788 85.7566 12.6011C85.6343 12.7235 85.5378 12.8691 85.4728 13.0293C85.4077 13.1896 85.3754 13.3613 85.3779 13.5343H85.3778Z" fill="#282739"/>
<path id="Vector_19" d="M93.1331 11.4688H95.4172C96.4081 11.4688 96.9893 11.9708 96.9893 12.7569C96.9909 13.0063 96.9067 13.2487 96.7509 13.4435C96.5951 13.6383 96.3771 13.7736 96.1335 13.8269V13.906C96.4293 13.9247 96.7067 14.0563 96.9083 14.2737C97.1099 14.491 97.2203 14.7775 97.2167 15.0739C97.2167 15.9577 96.5521 16.5345 95.4402 16.5345H93.1331V11.4688ZM94.1241 12.2361V13.5479H95.1151C95.7193 13.5479 96.0082 13.3155 96.0082 12.8871C96.0082 12.4921 95.7567 12.2361 95.226 12.2361L94.1241 12.2361ZM94.1241 14.2829V15.7672H95.3096C95.9006 15.7672 96.217 15.5062 96.217 15.0272C96.217 14.5202 95.8589 14.2829 95.1843 14.2829L94.1241 14.2829Z" fill="#282739"/>
</g>
</g>
</g>
</svg>
