<svg width="152" height="45" viewBox="0 0 152 45" fill="none" xmlns="http://www.w3.org/2000/svg">
<path d="M145.746 44.8881H5.82095C2.74259 44.8881 0.223938 42.3694 0.223938 39.291V5.70896C0.223938 2.6306 2.74259 0.111944 5.82095 0.111944H145.746C148.825 0.111944 151.343 2.6306 151.343 5.70896V39.291C151.343 42.3694 148.825 44.8881 145.746 44.8881Z" fill="white"/>
<path d="M119.928 33.694H122.017V19.7002H119.928V33.694ZM138.742 24.7411L136.348 30.8081H136.276L133.791 24.7411H131.541L135.268 33.2209L133.143 37.9377H135.322L141.065 24.7411H138.742ZM126.897 32.1046C126.212 32.1046 125.258 31.7626 125.258 30.9161C125.258 29.836 126.447 29.422 127.472 29.422C128.391 29.422 128.822 29.62 129.381 29.8903C129.218 31.1864 128.102 32.1046 126.897 32.1046V32.1046ZM127.149 24.4349C125.636 24.4349 124.07 25.1013 123.422 26.5776L125.276 27.3515C125.672 26.5776 126.41 26.3252 127.184 26.3252C128.265 26.3252 129.363 26.9737 129.381 28.1259V28.2698C129.002 28.0537 128.193 27.7298 127.202 27.7298C125.204 27.7298 123.169 28.8277 123.169 30.8802C123.169 32.7526 124.808 33.959 126.644 33.959C128.049 33.959 128.822 33.3289 129.309 32.5909H129.381V33.6709H131.397V28.3056C131.397 25.8215 129.543 24.4349 127.149 24.4349V24.4349ZM114.24 26.4446H111.269V21.6478H114.24C115.801 21.6478 116.688 22.9407 116.688 24.0461C116.688 25.1306 115.801 26.4446 114.24 26.4446ZM114.186 19.7002H109.181V33.694H111.269V28.3922H114.186C116.501 28.3922 118.777 26.7161 118.777 24.0461C118.777 21.3763 116.501 19.7002 114.186 19.7002ZM86.8937 32.1072C85.4507 32.1072 84.2425 30.899 84.2425 29.2396C84.2425 27.5627 85.4507 26.3362 86.8937 26.3362C88.3184 26.3362 89.4365 27.5627 89.4365 29.2396C89.4365 30.899 88.3184 32.1072 86.8937 32.1072V32.1072ZM89.2922 25.5246H89.22C88.7513 24.9657 87.8491 24.4608 86.7132 24.4608C84.3326 24.4608 82.1507 26.5526 82.1507 29.2396C82.1507 31.9087 84.3326 33.9826 86.7132 33.9826C87.8491 33.9826 88.7513 33.4776 89.22 32.9008H89.2922V33.586C89.2922 35.4077 88.3184 36.3815 86.7494 36.3815C85.4691 36.3815 84.6755 35.4615 84.3506 34.6862L82.5294 35.4436C83.0524 36.7059 84.4411 38.257 86.7494 38.257C89.202 38.257 91.276 36.8139 91.276 33.2974V24.7493H89.2922V25.5246ZM92.7185 33.694H94.8105V19.6997H92.7185V33.694ZM97.8944 29.0774C97.8403 27.2378 99.3191 26.3003 100.383 26.3003C101.213 26.3003 101.916 26.7148 102.15 27.3104L97.8944 29.0774ZM104.387 27.4905C103.99 26.4262 102.781 24.4608 100.311 24.4608C97.8582 24.4608 95.8205 26.3904 95.8205 29.2217C95.8205 31.8908 97.8403 33.9826 100.545 33.9826C102.728 33.9826 103.99 32.6481 104.513 31.8728L102.89 30.7905C102.349 31.5842 101.609 32.1072 100.545 32.1072C99.4813 32.1072 98.724 31.6201 98.2369 30.6646L104.603 28.0314L104.387 27.4905ZM53.6685 25.9216V27.9413H58.5015C58.3572 29.0774 57.9785 29.9069 57.4014 30.484C56.6983 31.1876 55.5981 31.9629 53.6685 31.9629C50.6928 31.9629 48.3666 29.5645 48.3666 26.5889C48.3666 23.6133 50.6928 21.2145 53.6685 21.2145C55.2736 21.2145 56.4455 21.8458 57.3113 22.6574L58.7359 21.2329C57.5278 20.0784 55.9225 19.1948 53.6685 19.1948C49.5926 19.1948 46.1663 22.5131 46.1663 26.5889C46.1663 30.6646 49.5926 33.9826 53.6685 33.9826C55.8688 33.9826 57.5278 33.2616 58.826 31.9087C60.1606 30.5742 60.5756 28.6987 60.5756 27.184C60.5756 26.7148 60.5396 26.2824 60.4671 25.9216H53.6685ZM66.0703 32.1072C64.6272 32.1072 63.3828 30.9169 63.3828 29.2217C63.3828 27.5085 64.6272 26.3362 66.0703 26.3362C67.5127 26.3362 68.7572 27.5085 68.7572 29.2217C68.7572 30.9169 67.5127 32.1072 66.0703 32.1072V32.1072ZM66.0703 24.4608C63.437 24.4608 61.2909 26.4625 61.2909 29.2217C61.2909 31.9629 63.437 33.9826 66.0703 33.9826C68.703 33.9826 70.8491 31.9629 70.8491 29.2217C70.8491 26.4625 68.703 24.4608 66.0703 24.4608ZM76.4955 32.1072C75.053 32.1072 73.8085 30.9169 73.8085 29.2217C73.8085 27.5085 75.053 26.3362 76.4955 26.3362C77.9381 26.3362 79.1825 27.5085 79.1825 29.2217C79.1825 30.9169 77.9381 32.1072 76.4955 32.1072ZM76.4955 24.4608C73.8623 24.4608 71.7166 26.4625 71.7166 29.2217C71.7166 31.9629 73.8623 33.9826 76.4955 33.9826C79.1283 33.9826 81.2744 31.9629 81.2744 29.2217C81.2744 26.4625 79.1283 24.4608 76.4955 24.4608Z" fill="#282739"/>
<path d="M11.9886 36.3688L11.9054 36.2892C11.5797 35.9445 11.3874 35.4093 11.3874 34.7163V34.8794V10.1227C11.3874 10.1205 11.3874 10.1188 11.3874 10.117C11.3874 10.1191 11.3874 10.1209 11.3874 10.1231V10.2867C11.3874 9.53624 11.6116 8.97094 11.9873 8.63199L25.8565 22.5008L11.9886 36.3688ZM11.3874 10.1156C11.3874 10.054 11.3891 9.99408 11.3922 9.93508C11.3891 9.99363 11.3874 10.054 11.3874 10.1156ZM11.3922 9.9324C11.3922 9.93162 11.3922 9.93072 11.3925 9.92982C11.3922 9.93072 11.3922 9.93162 11.3922 9.9324ZM11.3925 9.92456C11.3925 9.92411 11.3925 9.92367 11.3925 9.92322C11.3925 9.92367 11.3925 9.92411 11.3925 9.92456Z" fill="url(#paint0_linear_3693_60)"/>
<path d="M30.4789 27.2893L30.5843 27.2294L36.0614 24.1174C36.5836 23.8205 36.9317 23.4606 37.1053 23.0798C36.9321 23.4606 36.584 23.8209 36.0614 24.1178L30.5843 27.2299L30.4789 27.2893V27.2893ZM30.4802 27.1253L25.8565 22.5008L30.4798 17.8771L36.0614 21.0482C36.7702 21.4509 37.1682 21.97 37.2347 22.5004C37.2347 22.5008 37.2347 22.5017 37.2347 22.5025C37.1682 23.0317 36.7702 23.5512 36.0614 23.9538L30.4802 27.1253" fill="url(#paint1_linear_3693_60)"/>
<path d="M12.9773 36.897C12.5899 36.897 12.2518 36.771 11.9882 36.5332L11.9887 36.5327C12.2523 36.7706 12.5908 36.897 12.9782 36.897C13.0118 36.897 13.0459 36.8961 13.0805 36.8944C13.0455 36.8961 13.0109 36.897 12.9773 36.897V36.897ZM12.9778 36.733C12.5903 36.7334 12.2523 36.607 11.9887 36.3692V36.3688L25.8565 22.5009L30.4802 27.1254L14.2318 36.3574C13.7823 36.6123 13.3563 36.733 12.9778 36.733V36.733ZM11.9847 36.5301C11.9602 36.5079 11.9362 36.4842 11.9125 36.4597L11.9847 36.5301Z" fill="url(#paint2_linear_3693_60)"/>
<path d="M25.8565 22.5009L11.9873 8.63201C12.2509 8.39459 12.5885 8.26865 12.9755 8.26865C13.3551 8.26865 13.7814 8.38977 14.2318 8.64511L30.4797 17.8772L25.8565 22.5009V22.5009ZM30.5843 17.7727L14.2318 8.48168C13.7814 8.22623 13.3551 8.10511 12.9755 8.10511C12.9737 8.10511 12.9725 8.10511 12.9707 8.10511C12.9729 8.10511 12.9746 8.10511 12.9773 8.10511C13.356 8.10511 13.7818 8.22578 14.2318 8.48123L30.5843 17.7727V17.7727Z" fill="url(#paint3_linear_3693_60)"/>
<path d="M13.0804 36.8944C13.4324 36.8743 13.822 36.7531 14.2317 36.521L30.4788 27.2894L14.2317 36.521C13.8224 36.7536 13.4324 36.8743 13.0804 36.8944V36.8944ZM11.9881 36.5332L11.9847 36.5302C11.9859 36.5311 11.9872 36.5323 11.9881 36.5332ZM11.9124 36.4597L11.9054 36.4528V36.4524C11.9081 36.4549 11.9102 36.4575 11.9124 36.4597Z" fill="white"/>
<path d="M30.4788 27.2893L30.5843 27.2294L30.4788 27.2893Z" fill="url(#paint4_linear_3693_60)"/>
<path d="M12.9781 36.897C12.5907 36.897 12.2522 36.7706 11.9886 36.5327L11.9881 36.5332C11.9872 36.5323 11.9859 36.531 11.9847 36.5301L11.9124 36.4597C11.9102 36.4575 11.9081 36.4549 11.9054 36.4523L11.9886 36.3692C12.2522 36.607 12.5902 36.7334 12.9777 36.733C13.3563 36.733 13.7822 36.6123 14.2317 36.3574L30.4801 27.1254L30.5842 27.2295L30.4788 27.2894L14.2317 36.521C13.822 36.7531 13.4324 36.8742 13.0804 36.8944C13.0458 36.8961 13.0117 36.897 12.9781 36.897" fill="url(#paint5_linear_3693_60)"/>
<path d="M11.9055 36.4528C11.5797 36.1081 11.3874 35.5729 11.3874 34.8799V34.8794C11.3874 35.5729 11.5797 36.1076 11.9055 36.4523V36.4528" fill="white"/>
<path d="M11.9054 36.4524C11.5797 36.1077 11.3874 35.573 11.3874 34.8795V34.7164C11.3874 35.4094 11.5797 35.9446 11.9054 36.2893L11.9886 36.3689L11.9054 36.4524" fill="url(#paint6_linear_3693_60)"/>
<path d="M11.9054 36.4524L11.9886 36.3689V36.3692L11.9054 36.4524" fill="url(#paint7_linear_3693_60)"/>
<path d="M37.1052 23.0798C37.1913 22.8909 37.2346 22.6968 37.2346 22.5026C37.2346 22.5022 37.2346 22.5018 37.2346 22.5018C37.2346 22.6963 37.1913 22.8904 37.1052 23.0798Z" fill="white"/>
<path d="M30.5843 27.2295L30.4802 27.1254L36.0614 23.9539C36.7702 23.5512 37.1682 23.0317 37.2346 22.5026C37.2346 22.6968 37.1913 22.8909 37.1052 23.0799C36.9316 23.4607 36.5836 23.8206 36.0614 24.1174L30.5843 27.2295Z" fill="url(#paint8_linear_3693_60)"/>
<path d="M37.2347 22.5009V22.5004C37.2342 21.9148 36.8429 21.3294 36.0614 20.8851L30.5843 17.7731H30.5839L30.5843 17.7727L36.0614 20.8847C36.8438 21.329 37.2356 21.9153 37.2347 22.5009Z" fill="#282739"/>
<path d="M37.2347 22.5004C37.1682 21.97 36.7702 21.4509 36.0614 21.0482L30.4797 17.8771L30.5838 17.773H30.5843L36.0614 20.8851C36.8429 21.3294 37.2342 21.9148 37.2347 22.5004Z" fill="url(#paint9_linear_3693_60)"/>
<path d="M11.3874 10.1171C11.3874 10.1166 11.3874 10.1162 11.3874 10.1157C11.3874 10.1162 11.3874 10.1166 11.3874 10.1171ZM11.3922 9.93516C11.3922 9.93427 11.3922 9.93337 11.3922 9.93248C11.3922 9.93337 11.3922 9.93427 11.3922 9.93516ZM11.3925 9.9299C11.3925 9.92811 11.3925 9.92643 11.3925 9.92464C11.3925 9.92643 11.3925 9.92811 11.3925 9.9299ZM11.3925 9.9233C11.4574 8.77334 12.0827 8.10908 12.9672 8.10517C12.5837 8.1074 12.2497 8.23334 11.9882 8.46897V8.46852L11.985 8.47166C11.9575 8.49651 11.9313 8.52281 11.9054 8.5499C11.6116 8.86076 11.4262 9.32643 11.3925 9.9233Z" fill="#282739"/>
<path d="M11.3874 10.2867V10.1232C11.3874 10.121 11.3874 10.1192 11.3874 10.117C11.3874 10.1166 11.3874 10.1161 11.3874 10.1157C11.3874 10.054 11.3891 9.99368 11.3922 9.93514C11.3922 9.93424 11.3922 9.93335 11.3922 9.93245C11.3922 9.93167 11.3922 9.93077 11.3925 9.92988C11.3925 9.92809 11.3925 9.92641 11.3925 9.92462C11.3925 9.92417 11.3925 9.92372 11.3925 9.92327C11.4262 9.32641 11.6116 8.86073 11.9055 8.54988L11.9873 8.63204C11.6116 8.971 11.3874 9.53629 11.3874 10.2867V10.2867ZM11.985 8.47163L11.9882 8.4685C11.9873 8.46984 11.9859 8.47073 11.985 8.47163Z" fill="url(#paint10_linear_3693_60)"/>
<path d="M30.4796 17.8772L14.2317 8.64514C13.7813 8.38981 13.355 8.26869 12.9754 8.26869C12.5885 8.26869 12.2508 8.39462 11.9872 8.63205L11.9054 8.54988C11.9313 8.52279 11.9574 8.49649 11.985 8.47163C11.9859 8.47074 11.9872 8.46985 11.9881 8.46895C12.2496 8.23332 12.5836 8.10738 12.9671 8.10514C12.968 8.10514 12.9693 8.10514 12.9706 8.10514C12.9724 8.10514 12.9736 8.10514 12.9754 8.10514C13.355 8.10514 13.7813 8.22626 14.2317 8.48171L30.5842 17.7728L30.5838 17.7731L30.4796 17.8772Z" fill="url(#paint11_linear_3693_60)"/>
<path d="M48.914 11.2688C48.9271 12.3313 48.7142 13.1883 48.2769 13.839H51.6722V8.77285H48.914V11.2688ZM47.3661 16.0896H46.541V13.839H47.1978C47.7793 13.3379 48.0635 12.4818 48.0518 11.2688V7.94773H52.5359V13.839H53.2859V16.0896H52.4603V14.6642H47.3661V16.0896" fill="#282739"/>
<path d="M48.914 11.2688L48.8021 11.2701L48.803 11.3606C48.8026 12.3659 48.5927 13.1687 48.1837 13.7765L48.0667 13.951H51.7842V8.6609H48.8021V11.2697V11.2701L48.914 11.2688H49.026V8.88478H51.5603V13.7271H48.2769V13.839L48.3697 13.9012C48.8099 13.2461 49.0269 12.396 49.0269 11.3606L49.026 11.2674L48.914 11.2688H49.026H48.914ZM47.3661 16.0896V15.9777H46.653V13.951H47.1978H47.2393L47.2708 13.9239C47.8759 13.4018 48.1642 12.532 48.1642 11.3422L48.1637 11.2679V11.2688V8.05967H52.4239V13.951H53.1739V15.9777H52.5723V14.6641V14.5522H47.2542V16.0896H47.3661V15.9777V16.0896H47.4781V14.7761H52.3484V16.0896V16.2015H53.2859H53.3978V13.7271H52.6478V7.83579H47.9398V11.2692V11.2697L47.9403 11.3422C47.9398 12.5006 47.6591 13.2951 47.1247 13.7537L47.1978 13.839V13.7271H46.541H46.4291V16.2015H47.3661H47.4781V16.0896H47.3661" fill="#282739"/>
<path d="M55.7288 13.2338C56.2264 13.7371 56.8343 13.9885 57.5536 13.9885C58.2728 13.9885 58.8815 13.7371 59.3778 13.2338C59.8754 12.7305 60.1246 12.0872 60.1246 11.3059C60.1246 10.5245 59.8754 9.88121 59.3778 9.37793C58.8815 8.87465 58.2728 8.62323 57.5536 8.62323C56.8343 8.62323 56.2264 8.87465 55.7288 9.37793C55.2325 9.88121 54.9833 10.5245 54.9833 11.3059C54.9833 12.0872 55.2325 12.7305 55.7288 13.2338ZM60.0163 13.7961C59.3559 14.4751 58.5352 14.8141 57.5536 14.8141C56.5719 14.8141 55.7507 14.4751 55.0917 13.7961C54.4314 13.1179 54.1022 12.2876 54.1022 11.3059C54.1022 10.3242 54.4314 9.49379 55.0917 8.81565C55.7507 8.13651 56.5719 7.79722 57.5536 7.79722C58.5295 7.79722 59.3485 8.1383 60.0118 8.82002C60.6742 9.50173 61.0057 10.3303 61.0057 11.3059C61.0057 12.2876 60.6756 13.1179 60.0163 13.7961Z" fill="#282739"/>
<path d="M55.7288 13.2339L55.6493 13.3126C56.1647 13.8361 56.8079 14.1019 57.5536 14.1006C58.2987 14.1019 58.9432 13.8361 59.4573 13.3126C59.9764 12.7888 60.2375 12.111 60.2366 11.306C60.2375 10.501 59.9764 9.82324 59.4573 9.29936C58.9432 8.77592 58.2987 8.51006 57.5536 8.51141C56.8079 8.51006 56.1647 8.77592 55.6493 9.29936C55.1315 9.82324 54.8705 10.501 54.8714 11.306C54.8705 12.111 55.1315 12.7888 55.6493 13.3126L55.7288 13.2339L55.8089 13.1552C55.3339 12.672 55.0965 12.0642 55.0953 11.306C55.0965 10.5478 55.3339 9.93999 55.8089 9.45674H55.8084C56.2876 8.97361 56.86 8.73663 57.5536 8.73529C58.2466 8.73663 58.8203 8.97361 59.2982 9.45674L59.3 9.45853L59.2982 9.45674C59.7744 9.93999 60.0115 10.5478 60.0127 11.306C60.0115 12.0642 59.7744 12.672 59.2982 13.1552C58.8203 13.6384 58.2466 13.8754 57.5536 13.8767C56.86 13.8754 56.2876 13.6384 55.8084 13.1552L55.7288 13.2339ZM60.0163 13.7962L59.9362 13.7184C59.2947 14.3761 58.5094 14.7009 57.5536 14.7023C56.5973 14.7009 55.8124 14.3761 55.1717 13.7184C54.5315 13.0585 54.2154 12.2628 54.2142 11.306C54.2154 10.3492 54.5315 9.55346 55.1717 8.89357C55.8124 8.23592 56.5973 7.91062 57.5536 7.90928C58.5037 7.91062 59.2869 8.23727 59.9319 8.89839C60.5746 9.5613 60.8925 10.3558 60.8938 11.306C60.8925 12.2628 60.5755 13.0585 59.9362 13.7184L60.0163 13.7962L60.0966 13.874C60.7753 13.1771 61.1185 12.3126 61.1177 11.306C61.1185 10.3051 60.7744 9.44241 60.0923 8.74234C59.4101 8.03958 58.5558 7.68417 57.5536 7.6854C56.5461 7.68417 55.689 8.0379 55.0113 8.73797V8.73753C54.3313 9.43491 53.9894 10.2994 53.9903 11.306C53.9894 12.3126 54.3313 13.1771 55.0113 13.8745V13.874C55.689 14.5741 56.5461 14.927 57.5536 14.9261C58.5606 14.927 59.4176 14.5741 60.0966 13.874L60.0163 13.7962Z" fill="#282739"/>
<path d="M65.3501 14.8141C64.3619 14.8141 63.5333 14.4796 62.8642 13.8101C62.1939 13.1411 61.8607 12.3063 61.8607 11.3059C61.8607 10.3054 62.1939 9.47062 62.8642 8.80166C63.5333 8.13214 64.3619 7.79722 65.3501 7.79722C66.3623 7.79722 67.1853 8.16326 67.8171 8.89479L67.2159 9.47677C66.7603 8.90744 66.1371 8.62323 65.3501 8.62323C64.6176 8.62323 63.9997 8.87028 63.4969 9.36438C62.9932 9.85849 62.7417 10.5057 62.7417 11.3059C62.7417 12.106 62.9932 12.7537 63.4969 13.2474C63.9997 13.7415 64.6176 13.9885 65.3501 13.9885C66.1568 13.9885 66.8442 13.6636 67.4139 13.0134L68.0139 13.6133C67.707 13.9824 67.323 14.2749 66.8595 14.49C66.3973 14.7061 65.8932 14.8141 65.3501 14.8141" fill="#282739"/>
<path d="M65.35 14.8142V14.7023C64.3868 14.7009 63.5931 14.3795 62.9433 13.7311C62.2939 13.0817 61.9734 12.2816 61.9725 11.306C61.9734 10.3304 62.2939 9.53029 62.9433 8.88092C63.5931 8.23201 64.3868 7.91063 65.35 7.90928C66.3356 7.91107 67.1192 8.25999 67.7322 8.9679L67.8171 8.89492L67.7393 8.81443L67.138 9.39686L67.2158 9.47689L67.3033 9.40693C66.8284 8.81141 66.1634 8.50973 65.35 8.51141C64.5922 8.51051 63.9402 8.77078 63.4186 9.28447C62.8917 9.80007 62.6284 10.483 62.6297 11.306C62.6284 12.129 62.8917 12.8128 63.4186 13.3275C63.9402 13.8412 64.5922 14.1015 65.35 14.1006C66.1873 14.1019 66.9128 13.7582 67.4978 13.0874L67.4138 13.0135L67.3347 13.0927L67.9347 13.6926L68.0139 13.6134L67.9277 13.5422C67.6312 13.8981 67.2622 14.1797 66.8122 14.3887C66.3649 14.5977 65.8787 14.7018 65.35 14.7023V14.8142V14.9261C65.9079 14.9261 66.4292 14.8151 66.9066 14.5917C67.3842 14.3704 67.7821 14.0673 68.0999 13.6852L68.1651 13.6069L67.4931 12.9344L67.4082 12.8495L67.3296 12.9397C66.7759 13.5698 66.1262 13.8754 65.35 13.8767C64.6425 13.8754 64.0597 13.6419 63.5755 13.1675H63.5752C63.0942 12.6952 62.8545 12.0834 62.8536 11.306C62.8545 10.5286 63.0942 9.91771 63.5752 9.44454H63.5755C64.0597 8.97014 64.6425 8.73663 65.35 8.73529C66.1104 8.73708 66.6915 9.00383 67.1284 9.54686L67.2053 9.64312L67.8949 8.9754L67.971 8.90186L67.9019 8.82193C67.2516 8.06633 66.3889 7.68417 65.35 7.6854C64.3364 7.68451 63.4728 8.03309 62.785 8.72264C62.0937 9.41085 61.7473 10.2811 61.7487 11.306C61.7473 12.3309 62.0937 13.2011 62.785 13.8898C63.4728 14.5789 64.3364 14.927 65.35 14.9261V14.8142" fill="#282739"/>
<path d="M71.5045 14.6642H70.641V8.77288H68.7651V7.94776H73.3804V8.77288H71.5045V14.6642Z" fill="#282739"/>
<path d="M71.5045 14.6642V14.5522H70.753V8.66094H68.8771V8.05971H73.2685V8.66094H71.3926V14.6642H71.5045V14.5522V14.6642H71.6165V8.88482H73.4924V7.94777V7.83582H68.6532V8.77288V8.88482H70.5291V14.7761H71.5045H71.6165V14.6642H71.5045" fill="#282739"/>
<path d="M75.2549 12.0371H77.4868L76.3892 9.00773H76.352L75.2549 12.0371ZM73.3507 14.6642L75.8838 7.94776H76.8585L79.3911 14.6642H78.4348L77.7871 12.8438H74.9642L74.3075 14.6642H73.3507Z" fill="#282739"/>
<path d="M75.255 12.0371V12.149H77.6465L76.4675 8.89579H76.3521H76.2734L75.0955 12.149H75.255V12.0371L75.3604 12.0756L76.4576 9.04579L76.3521 9.00773V9.11967H76.3893V9.00773L76.2839 9.04579L77.3272 11.9251H75.255V12.0371L75.3604 12.0756L75.255 12.0371ZM73.3508 14.6642L73.4557 14.7036L75.9612 8.05971H76.7806L79.2293 14.5522H78.5136L77.8663 12.7319H74.8856L74.2287 14.5522H73.3508V14.6642L73.4557 14.7036L73.3508 14.6642V14.7761H74.3075H74.3862L75.043 12.9558H77.7085L78.3557 14.7761H79.3912H79.5529L76.9359 7.83582H75.8839H75.8064L73.1889 14.7761H73.3508V14.6642" fill="#282739"/>
<path d="M80.3671 14.6642V7.94776H85.2264V14.6642H84.3629V8.77288H81.2298V14.6642H80.3671Z" fill="#282739"/>
<path d="M80.3671 14.6642H80.479V8.05971H85.1144V14.5522H84.4748V8.66094H81.1178V14.5522H80.3671V14.6642H80.479H80.3671V14.7761H81.2298H81.3417V8.88482H84.2509V14.7761H85.2264H85.3383V7.83582H80.2551V14.7761H80.3671V14.6642" fill="#282739"/>
<path d="M86.7656 14.6642V7.94776H87.6284V10.8272H90.9866V7.94776H91.8497V14.6642H90.9866V11.634H87.6284V14.6642H86.7656Z" fill="#282739"/>
<path d="M86.7655 14.6642H86.8774V8.05971H87.5164L87.516 10.9391H91.0985V8.05971H91.7377V14.5522H91.0981L91.0985 11.522H87.516V14.5522H86.7655V14.6642H86.8774H86.7655V14.7761H87.6283H87.7403V11.7459H90.8742V14.7761H91.8496H91.9616V7.83582H90.9866H90.8742V10.7153H87.7398L87.7403 7.83582H86.7655H86.6536V14.7761H86.7655V14.6642Z" fill="#282739"/>
<path d="M94.5926 13.2338C95.0903 13.7371 95.6976 13.9885 96.4169 13.9885C97.1367 13.9885 97.7453 13.7371 98.2417 13.2338C98.7388 12.7305 98.9885 12.0872 98.9885 11.3059C98.9885 10.5245 98.7388 9.88121 98.2417 9.37793C97.7453 8.87465 97.1367 8.62323 96.4169 8.62323C95.6976 8.62323 95.0903 8.87465 94.5926 9.37793C94.0964 9.88121 93.8471 10.5245 93.8471 11.3059C93.8471 12.0872 94.0964 12.7305 94.5926 13.2338ZM98.88 13.7961C98.2198 14.4751 97.3991 14.8141 96.4169 14.8141C95.4357 14.8141 94.6146 14.4751 93.9556 13.7961C93.2953 13.1179 92.966 12.2876 92.966 11.3059C92.966 10.3242 93.2953 9.49379 93.9556 8.81565C94.6146 8.13651 95.4357 7.79722 96.4169 7.79722C97.3934 7.79722 98.2119 8.1383 98.8757 8.82002C99.5381 9.50173 99.8696 10.3303 99.8696 11.3059C99.8696 12.2876 99.5395 13.1179 98.88 13.7961Z" fill="#282739"/>
<path d="M94.5927 13.2339L94.5131 13.3126C95.0287 13.8361 95.6719 14.1019 96.417 14.1006C97.1625 14.1019 97.8066 13.8361 98.3213 13.3126C98.8404 12.7888 99.1014 12.111 99.1005 11.306C99.1014 10.501 98.8404 9.82324 98.3213 9.29936C97.8066 8.77592 97.1625 8.51006 96.417 8.51141C95.6719 8.51006 95.0287 8.77592 94.5131 9.29936C93.9954 9.82324 93.7343 10.501 93.7352 11.306C93.7343 12.111 93.9954 12.7888 94.5131 13.3126L94.5927 13.2339L94.6723 13.1552C94.1974 12.672 93.96 12.0642 93.9591 11.306C93.96 10.5478 94.1974 9.93999 94.6723 9.45674C95.1516 8.97361 95.7239 8.73663 96.417 8.73529C97.1106 8.73663 97.6842 8.97361 98.1621 9.45674L98.1651 9.46032L98.1621 9.45674C98.6379 9.93999 98.8753 10.5478 98.8766 11.306C98.8753 12.0642 98.6379 12.672 98.1621 13.1552C97.6842 13.6384 97.1106 13.8754 96.417 13.8767C95.7239 13.8754 95.1516 13.6384 94.6723 13.1552L94.5927 13.2339ZM98.8801 13.7962L98.7996 13.7184C98.1582 14.3761 97.3733 14.7009 96.417 14.7023C95.4611 14.7009 94.6762 14.3761 94.0357 13.7184L94.0325 13.715L94.0357 13.7184C93.395 13.0585 93.0789 12.2628 93.078 11.306C93.0789 10.3492 93.395 9.55346 94.0357 8.89357C94.6762 8.23592 95.4611 7.91062 96.417 7.90928C97.3672 7.91062 98.1504 8.23727 98.7957 8.89839C99.4385 9.5613 99.7564 10.3558 99.7577 11.306C99.7564 12.2628 99.4394 13.0585 98.7996 13.7184L98.8801 13.7962L98.9606 13.874C99.6392 13.1771 99.9825 12.3126 99.9816 11.306C99.9825 10.3051 99.6379 9.44241 98.9562 8.74234C98.2741 8.03958 97.4192 7.68417 96.417 7.6854C95.41 7.68417 94.5529 8.0379 93.8751 8.73797V8.73753C93.1952 9.43491 92.8532 10.2994 92.8541 11.306C92.8532 12.3126 93.1952 13.1771 93.8751 13.8745V13.874C94.5529 14.5741 95.41 14.927 96.417 14.9261C97.4244 14.927 98.2814 14.5741 98.9606 13.874L98.8801 13.7962" fill="#282739"/>
<path d="M103.398 14.6642V7.94776H104.26V10.8272H107.618V7.94776H108.483V14.6642H107.618V11.634H104.26V14.6642H103.398Z" fill="#282739"/>
<path d="M103.398 14.6642H103.51V8.05971H104.148V10.9391H107.73V8.05971H108.371V14.5522H107.73V11.522H104.148V14.5522H103.398V14.6642H103.51H103.398V14.7761H104.26H104.372V11.7459H107.506V14.7761H108.483H108.594V7.83582H107.618H107.506V10.7153H104.372V7.83582H103.398H103.286V14.7761H103.398V14.6642Z" fill="#282739"/>
<path d="M111.362 12.0371H113.594L112.497 9.00773H112.46L111.362 12.0371ZM109.458 14.6642L111.991 7.94776H112.966L115.499 14.6642H114.542L113.895 12.8438H111.071L110.415 14.6642H109.458Z" fill="#282739"/>
<path d="M111.362 12.0371V12.149H113.754L112.575 8.89579H112.46H112.381L111.203 12.149H111.362V12.0371L111.467 12.0756L112.565 9.04579L112.46 9.00773V9.11967H112.497V9.00773L112.391 9.04579L113.435 11.9251H111.362V12.0371L111.467 12.0756L111.362 12.0371ZM109.458 14.6642L109.563 14.7036L112.068 8.05971H112.889L115.337 14.5522H114.621L113.973 12.7319H110.992L110.335 14.5522H109.458V14.6642L109.563 14.7036L109.458 14.6642V14.7761H110.415H110.493L111.15 12.9558H113.815L114.462 14.7761H115.499H115.66L113.043 7.83582H111.991H111.914L109.295 14.7761H109.458V14.6642" fill="#282739"/>
<defs>
<linearGradient id="paint0_linear_3693_60" x1="24.6267" y1="9.86154" x2="5.84031" y2="28.6479" gradientUnits="userSpaceOnUse">
<stop stop-color="#00A0FF"/>
<stop offset="0.00657445" stop-color="#00A1FF"/>
<stop offset="0.2601" stop-color="#00BEFF"/>
<stop offset="0.5122" stop-color="#00D2FF"/>
<stop offset="0.7604" stop-color="#00DFFF"/>
<stop offset="1" stop-color="#00E3FF"/>
</linearGradient>
<linearGradient id="paint1_linear_3693_60" x1="38.0983" y1="22.5015" x2="11.0121" y2="22.5015" gradientUnits="userSpaceOnUse">
<stop stop-color="#FFE000"/>
<stop offset="0.4087" stop-color="#FFBD00"/>
<stop offset="0.7754" stop-color="#FFA500"/>
<stop offset="1" stop-color="#FF9C00"/>
</linearGradient>
<linearGradient id="paint2_linear_3693_60" x1="28.0154" y1="25.0703" x2="2.53966" y2="50.546" gradientUnits="userSpaceOnUse">
<stop stop-color="#FF3A44"/>
<stop offset="1" stop-color="#C31162"/>
</linearGradient>
<linearGradient id="paint3_linear_3693_60" x1="8.39257" y1="0.30914" x2="19.7685" y2="11.6851" gradientUnits="userSpaceOnUse">
<stop stop-color="#32A071"/>
<stop offset="0.0685" stop-color="#2DA771"/>
<stop offset="0.4762" stop-color="#15CF74"/>
<stop offset="0.8009" stop-color="#06E775"/>
<stop offset="1" stop-color="#00F076"/>
</linearGradient>
<linearGradient id="paint4_linear_3693_60" x1="38.0982" y1="22.5016" x2="11.0122" y2="22.5016" gradientUnits="userSpaceOnUse">
<stop stop-color="#CCB300"/>
<stop offset="0.4087" stop-color="#CC9700"/>
<stop offset="0.7754" stop-color="#CC8400"/>
<stop offset="1" stop-color="#CC7D00"/>
</linearGradient>
<linearGradient id="paint5_linear_3693_60" x1="28.0153" y1="25.0703" x2="2.53957" y2="50.546" gradientUnits="userSpaceOnUse">
<stop stop-color="#CC2E36"/>
<stop offset="1" stop-color="#9C0E4E"/>
</linearGradient>
<linearGradient id="paint6_linear_3693_60" x1="24.6267" y1="9.86165" x2="5.84033" y2="28.6481" gradientUnits="userSpaceOnUse">
<stop stop-color="#008DE0"/>
<stop offset="0.00657445" stop-color="#008DE0"/>
<stop offset="0.2601" stop-color="#00A7E0"/>
<stop offset="0.5122" stop-color="#00B8E0"/>
<stop offset="0.7604" stop-color="#00C4E0"/>
<stop offset="1" stop-color="#00C7E0"/>
</linearGradient>
<linearGradient id="paint7_linear_3693_60" x1="28.0158" y1="25.0702" x2="2.53992" y2="50.5467" gradientUnits="userSpaceOnUse">
<stop stop-color="#E0333C"/>
<stop offset="1" stop-color="#AB0F56"/>
</linearGradient>
<linearGradient id="paint8_linear_3693_60" x1="38.0983" y1="22.5016" x2="11.012" y2="22.5016" gradientUnits="userSpaceOnUse">
<stop stop-color="#E0C500"/>
<stop offset="0.4087" stop-color="#E0A600"/>
<stop offset="0.7754" stop-color="#E09100"/>
<stop offset="1" stop-color="#E08900"/>
</linearGradient>
<linearGradient id="paint9_linear_3693_60" x1="38.0983" y1="22.5015" x2="11.0121" y2="22.5015" gradientUnits="userSpaceOnUse">
<stop stop-color="#FFE840"/>
<stop offset="0.4087" stop-color="#FFCE40"/>
<stop offset="0.7754" stop-color="#FFBC40"/>
<stop offset="1" stop-color="#FFB540"/>
</linearGradient>
<linearGradient id="paint10_linear_3693_60" x1="24.6267" y1="9.86159" x2="5.84034" y2="28.648" gradientUnits="userSpaceOnUse">
<stop stop-color="#40B8FF"/>
<stop offset="0.00657445" stop-color="#40B9FF"/>
<stop offset="0.2601" stop-color="#40CEFF"/>
<stop offset="0.5122" stop-color="#40DDFF"/>
<stop offset="0.7604" stop-color="#40E7FF"/>
<stop offset="1" stop-color="#40EAFF"/>
</linearGradient>
<linearGradient id="paint11_linear_3693_60" x1="8.39249" y1="0.309172" x2="19.7684" y2="11.6851" gradientUnits="userSpaceOnUse">
<stop stop-color="#65B895"/>
<stop offset="0.0685" stop-color="#62BD95"/>
<stop offset="0.4762" stop-color="#50DB97"/>
<stop offset="0.8009" stop-color="#44ED98"/>
<stop offset="1" stop-color="#40F498"/>
</linearGradient>
</defs>
</svg>
