<svg width="20" height="20" viewBox="0 0 20 20" fill="none" xmlns="http://www.w3.org/2000/svg">
<g id="Icon / Outlined / Heart">
<path id="Vector" d="M17.9935 5.51493C17.7329 4.90538 17.357 4.353 16.887 3.88873C16.4167 3.42307 15.8621 3.05302 15.2535 2.7987C14.6224 2.53394 13.9455 2.39842 13.2622 2.40001C12.3035 2.40001 11.3681 2.66515 10.5552 3.16597C10.3607 3.28578 10.176 3.41737 10.001 3.56074C9.82595 3.41737 9.6412 3.28578 9.44674 3.16597C8.63387 2.66515 7.69848 2.40001 6.73976 2.40001C6.0494 2.40001 5.38044 2.53356 4.74842 2.7987C4.1378 3.05402 3.58746 3.42129 3.1149 3.88873C2.64429 4.35248 2.26835 4.90498 2.00839 5.51493C1.73808 6.14931 1.60001 6.82296 1.60001 7.51626C1.60001 8.17028 1.73224 8.85179 1.99477 9.54509C2.21452 10.1245 2.52956 10.7255 2.9321 11.3323C3.56995 12.2927 4.447 13.2944 5.53601 14.3098C7.34066 15.9929 9.12781 17.1556 9.20365 17.2028L9.66454 17.5013C9.86873 17.6329 10.1313 17.6329 10.3355 17.5013L10.7963 17.2028C10.8722 17.1537 12.6574 15.9929 14.464 14.3098C15.553 13.2944 16.43 12.2927 17.0679 11.3323C17.4704 10.7255 17.7874 10.1245 18.0052 9.54509C18.2677 8.85179 18.4 8.17028 18.4 7.51626C18.4019 6.82296 18.2639 6.14931 17.9935 5.51493ZM10.001 15.9478C10.001 15.9478 3.07795 11.4679 3.07795 7.51626C3.07795 5.51493 4.71731 3.89266 6.73976 3.89266C8.16131 3.89266 9.39423 4.69397 10.001 5.86453C10.6077 4.69397 11.8406 3.89266 13.2622 3.89266C15.2846 3.89266 16.924 5.51493 16.924 7.51626C16.924 11.4679 10.001 15.9478 10.001 15.9478Z" fill="#6F73EE"/>
</g>
</svg>
