<svg width="20" height="20" viewBox="0 0 20 20" fill="none" xmlns="http://www.w3.org/2000/svg">
<g id="shopping-cart 2" clip-path="url(#clip0_1_16000)">
<path id="Vector" d="M19.1523 7.25427H15.0031L12.6756 1.92486C12.5461 1.62833 12.2007 1.49282 11.9042 1.62239C11.6076 1.75189 11.4722 2.09732 11.6017 2.39388L13.7244 7.25431H6.27561L8.39827 2.39388C8.52776 2.09732 8.39237 1.75193 8.09581 1.62239C7.79929 1.49282 7.45382 1.62825 7.32436 1.92486L4.99686 7.25427H0.847685C0.304911 7.25427 -0.0979012 7.74564 0.0208488 8.26286L2.20581 17.7797C2.29257 18.1576 2.63608 18.4261 3.03265 18.4261H16.9673C17.3639 18.4261 17.7074 18.1576 17.7942 17.7797L19.9791 8.26286C20.0979 7.74568 19.695 7.25427 19.1523 7.25427ZM5.1071 9.0513C5.02882 9.0513 4.94925 9.03552 4.87288 9.00216C4.57632 8.87267 4.44089 8.52728 4.57042 8.23068L5.01057 7.22278H6.28933L5.64432 8.69966C5.54819 8.91993 5.33296 9.0513 5.1071 9.0513ZM7.0703 15.3011C7.0703 15.6247 6.80796 15.8871 6.48436 15.8871C6.16077 15.8871 5.89843 15.6247 5.89843 15.3011V11.0043C5.89843 10.6807 6.16077 10.4183 6.48436 10.4183C6.80796 10.4183 7.0703 10.6807 7.0703 11.0043V15.3011ZM10.5859 15.3011C10.5859 15.6247 10.3236 15.8871 9.99999 15.8871C9.6764 15.8871 9.41405 15.6247 9.41405 15.3011V11.0043C9.41405 10.6807 9.6764 10.4183 9.99999 10.4183C10.3236 10.4183 10.5859 10.6807 10.5859 11.0043V15.3011ZM14.1016 15.3011C14.1016 15.6247 13.8392 15.8871 13.5156 15.8871C13.192 15.8871 12.9297 15.6247 12.9297 15.3011V11.0043C12.9297 10.6807 13.192 10.4183 13.5156 10.4183C13.8392 10.4183 14.1016 10.6807 14.1016 11.0043V15.3011ZM15.1271 9.00216C15.0507 9.03552 14.9712 9.0513 14.8929 9.0513C14.667 9.0513 14.4518 8.91997 14.3556 8.6997L13.7106 7.22282H14.9894L15.4295 8.23071C15.5591 8.52728 15.4236 8.87267 15.1271 9.00216Z" fill="#6F73EE"/>
</g>
<defs>
<clipPath id="clip0_1_16000">
<rect width="20" height="20" fill="white"/>
</clipPath>
</defs>
</svg>
