<svg width="20" height="20" viewBox="0 0 20 20" fill="none" xmlns="http://www.w3.org/2000/svg">
<g id="shopping-cart-2 1" clip-path="url(#clip0_3652_198)">
<g id="Vector">
<path d="M19.703 7.22908C19.4389 6.89775 19.0427 6.70767 18.6159 6.70767H14.7642L12.6756 1.92513C12.5461 1.62861 12.2007 1.4931 11.9041 1.62267C11.6076 1.75216 11.4721 2.09759 11.6017 2.39415L13.4854 6.70771H6.51443L8.39822 2.39415C8.52771 2.09759 8.39232 1.7522 8.09576 1.62267C7.79924 1.4931 7.45381 1.62853 7.32432 1.92513L5.23568 6.70771H1.38396C0.957168 6.70771 0.560957 6.89775 0.296855 7.22911C0.0375977 7.55443 -0.0580664 7.97263 0.0343946 8.37661L2.09131 17.361C2.23494 17.9883 2.7899 18.4265 3.44088 18.4265H16.559C17.21 18.4265 17.7649 17.9883 17.9086 17.361L19.9655 8.37658C20.0579 7.97259 19.9623 7.55439 19.703 7.22908ZM16.559 17.2545H3.44088C3.34139 17.2545 3.25424 17.1893 3.23365 17.0994L1.17674 8.11509C1.16061 8.04458 1.18768 7.99154 1.2133 7.95947C1.23705 7.92962 1.29084 7.87958 1.38396 7.87958H4.72393L4.57045 8.23103C4.44096 8.52759 4.57635 8.87298 4.87291 9.00251C4.94924 9.03587 5.02877 9.05165 5.10709 9.05165C5.33295 9.05165 5.54818 8.92029 5.64436 8.70009L6.00268 7.87966H13.9973L14.3556 8.70009C14.4518 8.92033 14.667 9.05165 14.8929 9.05165C14.9712 9.05165 15.0507 9.03587 15.1271 9.00251C15.4236 8.87302 15.559 8.52759 15.4295 8.23103L15.276 7.87958H18.616C18.7091 7.87958 18.7629 7.92962 18.7867 7.95947C18.8122 7.99158 18.8394 8.04462 18.8232 8.11505L16.7663 17.0994C16.7457 17.1893 16.6585 17.2545 16.559 17.2545Z" fill="#6F73EE"/>
<path d="M19.703 7.22908C19.4389 6.89775 19.0427 6.70767 18.6159 6.70767H14.7642L12.6756 1.92513C12.5461 1.62861 12.2007 1.4931 11.9041 1.62267C11.6076 1.75216 11.4721 2.09759 11.6017 2.39415L13.4854 6.70771H6.51443L8.39822 2.39415C8.52771 2.09759 8.39232 1.7522 8.09576 1.62267C7.79924 1.4931 7.45381 1.62853 7.32432 1.92513L5.23568 6.70771H1.38396C0.957168 6.70771 0.560957 6.89775 0.296855 7.22911C0.0375977 7.55443 -0.0580664 7.97263 0.0343946 8.37661L2.09131 17.361C2.23494 17.9883 2.7899 18.4265 3.44088 18.4265H16.559C17.21 18.4265 17.7649 17.9883 17.9086 17.361L19.9655 8.37658C20.0579 7.97259 19.9623 7.55439 19.703 7.22908ZM16.559 17.2545H3.44088C3.34139 17.2545 3.25424 17.1893 3.23365 17.0994L1.17674 8.11509C1.16061 8.04458 1.18768 7.99154 1.2133 7.95947C1.23705 7.92962 1.29084 7.87958 1.38396 7.87958H4.72393L4.57045 8.23103C4.44096 8.52759 4.57635 8.87298 4.87291 9.00251C4.94924 9.03587 5.02877 9.05165 5.10709 9.05165C5.33295 9.05165 5.54818 8.92029 5.64436 8.70009L6.00268 7.87966H13.9973L14.3556 8.70009C14.4518 8.92033 14.667 9.05165 14.8929 9.05165C14.9712 9.05165 15.0507 9.03587 15.1271 9.00251C15.4236 8.87302 15.559 8.52759 15.4295 8.23103L15.276 7.87958H18.616C18.7091 7.87958 18.7629 7.92962 18.7867 7.95947C18.8122 7.99158 18.8394 8.04462 18.8232 8.11505L16.7663 17.0994C16.7457 17.1893 16.6585 17.2545 16.559 17.2545Z" stroke="#6F73EE"/>
</g>
<g id="Vector_2">
<path d="M6.48438 10.4188C6.16078 10.4188 5.89844 10.6812 5.89844 11.0048V15.3016C5.89844 15.6252 6.16078 15.8876 6.48438 15.8876C6.80797 15.8876 7.07031 15.6252 7.07031 15.3016V11.0048C7.07031 10.6812 6.80801 10.4188 6.48438 10.4188Z" fill="#6F73EE"/>
<path d="M6.48438 10.4188C6.16078 10.4188 5.89844 10.6812 5.89844 11.0048V15.3016C5.89844 15.6252 6.16078 15.8876 6.48438 15.8876C6.80797 15.8876 7.07031 15.6252 7.07031 15.3016V11.0048C7.07031 10.6812 6.80801 10.4188 6.48438 10.4188Z" stroke="#6F73EE"/>
</g>
<g id="Vector_3">
<path d="M10 10.4188C9.67641 10.4188 9.41406 10.6812 9.41406 11.0048V15.3016C9.41406 15.6252 9.67641 15.8876 10 15.8876C10.3236 15.8876 10.5859 15.6252 10.5859 15.3016V11.0048C10.5859 10.6812 10.3236 10.4188 10 10.4188Z" fill="#6F73EE"/>
<path d="M10 10.4188C9.67641 10.4188 9.41406 10.6812 9.41406 11.0048V15.3016C9.41406 15.6252 9.67641 15.8876 10 15.8876C10.3236 15.8876 10.5859 15.6252 10.5859 15.3016V11.0048C10.5859 10.6812 10.3236 10.4188 10 10.4188Z" stroke="#6F73EE"/>
</g>
<g id="Vector_4">
<path d="M13.5156 10.4188C13.192 10.4188 12.9297 10.6812 12.9297 11.0048V15.3016C12.9297 15.6252 13.192 15.8876 13.5156 15.8876C13.8392 15.8876 14.1016 15.6252 14.1016 15.3016V11.0048C14.1015 10.6812 13.8392 10.4188 13.5156 10.4188Z" fill="#6F73EE"/>
<path d="M13.5156 10.4188C13.192 10.4188 12.9297 10.6812 12.9297 11.0048V15.3016C12.9297 15.6252 13.192 15.8876 13.5156 15.8876C13.8392 15.8876 14.1016 15.6252 14.1016 15.3016V11.0048C14.1015 10.6812 13.8392 10.4188 13.5156 10.4188Z" stroke="#6F73EE"/>
</g>
</g>
<defs>
<clipPath id="clip0_3652_198">
<rect width="20" height="20" fill="white"/>
</clipPath>
</defs>
</svg>
